# xmcd
#
# Track frame offsets:
#	150
#	14287
#	30910
#	43537
#	59777
#	75605
#	95160
#	112892
#	128555
#	148950
#	165292
#
# Disc length: 2435 seconds
# Revision: 1
# Processed by: cddbd v1.5.2PL0 Copyright (c) Steve Scherf et al.
# Submitted via: dBpowerAMP V12.0
#
DISCID=8809810b
DTITLE=Rachel Proctor - Where I Belong
DYEAR=2004
DGENRE=Country
TTITLE0=Days Like This
TTITLE1=Me and Emily
TTITLE2=I'm Gonna Get You Back
TTITLE3=Strong as an Oak
TTITLE4=Shame on Me
TTITLE5=If That Chair Could Talk
TTITLE6=If You're Gonna Leave Me (Leave Me Alone)
TTITLE7=Didn't I
TTITLE8=So Close
TTITLE9=We Did It Our Way
TTITLE10=Where I Belong
EXTD=
EXTT0=
EXTT1=
EXTT2=
EXTT3=
EXTT4=
EXTT5=
EXTT6=
EXTT7=
EXTT8=
EXTT9=
EXTT10=
PLAYORDER=
